<?xml version="1.0" encoding="utf-8"?>
<!-- Generator: Adobe Illustrator 27.5.0, SVG Export Plug-In . SVG Version: 6.00 Build 0)  -->
<svg version="1.1" xmlns="http://www.w3.org/2000/svg" xmlns:xlink="http://www.w3.org/1999/xlink" x="0px" y="0px"
	 viewBox="0 0 500 500" style="enable-background:new 0 0 500 500;" xml:space="preserve">
<g id="BACKGROUND">
	
		<radialGradient id="XMLID_00000114784209730035233250000004381916486806230455_" cx="250" cy="250" r="464.72" gradientUnits="userSpaceOnUse">
		<stop  offset="0.2927" style="stop-color:#FFFFFF"/>
		<stop  offset="0.5037" style="stop-color:#FBFBFB"/>
		<stop  offset="0.7011" style="stop-color:#F0F0F0"/>
		<stop  offset="0.8924" style="stop-color:#DDDDDD"/>
		<stop  offset="1" style="stop-color:#CFCFCF"/>
	</radialGradient>
	<rect id="XMLID_30_" style="fill:url(#XMLID_00000114784209730035233250000004381916486806230455_);" width="500" height="500"/>
</g>
<g id="OBJECTS">
	<g id="XMLID_70_">
		<g id="XMLID_46_">
			
				<linearGradient id="XMLID_00000078732358724066840390000007260358960306231689_" gradientUnits="userSpaceOnUse" x1="226.5594" y1="132.5995" x2="257.0544" y2="132.5995">
				<stop  offset="0" style="stop-color:#262C82"/>
				<stop  offset="1" style="stop-color:#2F37B0"/>
			</linearGradient>
			<path id="XMLID_77_" style="fill:url(#XMLID_00000078732358724066840390000007260358960306231689_);" d="M257.054,139.057
				l-7.653-3.601v-0.402c0-4.922-3.99-8.912-8.912-8.912h-4.913c-6.32,0-10.675,6.34-8.408,12.239l0.26,0.676h21.973H257.054z"/>
			
				<linearGradient id="XMLID_00000111872823106088470400000015552241415257742730_" gradientUnits="userSpaceOnUse" x1="261.8844" y1="-16146.3418" x2="261.8844" y2="-16042.9365" gradientTransform="matrix(1 0 0 -1 0 -15881.8896)">
				<stop  offset="0" style="stop-color:#30AED1"/>
				<stop  offset="1" style="stop-color:#2F6FC0"/>
			</linearGradient>
			<path id="XMLID_74_" style="fill:url(#XMLID_00000111872823106088470400000015552241415257742730_);" d="M231.754,157.622
				c-4.514,0.491-7.478,5.163-5.798,9.533l14.637,38.075c2.078,5.405,2.079,11.387,0.005,16.793l-21.75,56.677
				c-0.325,0.846,0.3,1.755,1.206,1.755h15.813h11.777l-9.657-5.514l23.572-61.316h23.277l-10.555,27.093
				c-0.33,0.847,0.295,1.762,1.204,1.762h15.803h11.777l-9.634-5.501l10.999-28.232c2.132-5.471-1.904-11.375-7.776-11.375h-25.696
				l-13.205-34.35c-1.262-3.283-4.416-5.449-7.933-5.449h-6.201L231.754,157.622z"/>
			
				<linearGradient id="XMLID_00000181786579155017426360000007266269356996923560_" gradientUnits="userSpaceOnUse" x1="256.9431" y1="-16099.7832" x2="303.2817" y2="-16099.7832" gradientTransform="matrix(1 0 0 -1 0 -15881.8896)">
				<stop  offset="0" style="stop-color:#262C82"/>
				<stop  offset="1" style="stop-color:#2F37B0"/>
			</linearGradient>
			<path id="XMLID_51_" style="fill:url(#XMLID_00000181786579155017426360000007266269356996923560_);" d="M291.288,242.48h11.777
				l-9.634-5.501l14.35-36.835c0.52-1.333-0.464-2.772-1.895-2.772h-34.929l-1.563-4.066l-7.811,20.319h23.253l-10.555,27.093
				c-0.33,0.847,0.295,1.762,1.204,1.762H291.288z"/>
			<g id="XMLID_45_">
				<path id="XMLID_54_" style="fill:#FFB700;" d="M254.005,197.372h51.247c1.828,0,3.084-1.837,2.42-3.54l-9.895-25.399h-55.046
					L254.005,197.372z"/>
				
					<linearGradient id="XMLID_00000065042984494476010420000010350299269810657163_" gradientUnits="userSpaceOnUse" x1="285.11" y1="182.9029" x2="248.8383" y2="182.9029">
					<stop  offset="0" style="stop-color:#E37900"/>
					<stop  offset="1" style="stop-color:#FFB700"/>
				</linearGradient>
				<path id="XMLID_53_" style="fill:url(#XMLID_00000065042984494476010420000010350299269810657163_);" d="M254.005,197.372
					h22.109c1.559,0,2.631-1.568,2.065-3.02l-10.098-25.919h-25.351L254.005,197.372z"/>
				<polygon id="XMLID_55_" style="fill:#FF2600;" points="291.156,197.372 297.658,197.372 286.384,168.433 279.882,168.433 				
					"/>
				<polygon id="XMLID_62_" style="fill:#FF2600;" points="263.43,197.372 269.932,197.372 258.657,168.433 252.155,168.433 				"/>
			</g>
			
				<linearGradient id="XMLID_00000165207804450141407880000014913128365754454163_" gradientUnits="userSpaceOnUse" x1="227.2898" y1="-16017.585" x2="248.3922" y2="-16017.585" gradientTransform="matrix(1 0 0 -1 0 -15881.8896)">
				<stop  offset="0" style="stop-color:#30AED1"/>
				<stop  offset="1" style="stop-color:#2F6FC0"/>
			</linearGradient>
			<path id="XMLID_67_" style="fill:url(#XMLID_00000165207804450141407880000014913128365754454163_);" d="M243.396,145.248h8.472
				l-2.467-6.191h7.653l-7.653-3.601v-0.402c0-4.922-3.99-8.912-8.912-8.912h-4.537L243.396,145.248z"/>
			<path id="XMLID_47_" style="fill:#FFB700;" d="M234.565,157.622h11.864l0.056-0.049h-0.056l-2.069-5.312h3.52
				c0.84,0,1.522-0.681,1.522-1.522v-4.452h1.834c0.502,0,0.845-0.506,0.659-0.972l-2.493-6.258h-21.973L234.565,157.622z"/>
			<path id="XMLID_68_" style="fill:#1E2157;" d="M231.247,148.991c10.643-0.126,9.737-9.934,9.737-9.934h-13.556L231.247,148.991z"
				/>
			<path id="XMLID_56_" style="fill:#FFB700;" d="M274.281,240.719c-0.33,0.847,0.295,1.762,1.204,1.762h15.803h11.777l-9.634-5.501
				h-17.693L274.281,240.719z"/>
			<path id="XMLID_57_" style="fill:#FFB700;" d="M218.85,278.699c-0.325,0.846,0.299,1.756,1.206,1.756h15.812h11.777l-9.657-5.514
				h-17.693L218.85,278.699z"/>
			
				<line id="XMLID_64_" style="fill:none;stroke:#A7BBC9;stroke-width:5;stroke-linecap:round;stroke-linejoin:round;stroke-miterlimit:10;" x1="192.199" y1="185.84" x2="221.212" y2="185.84"/>
			
				<line id="XMLID_63_" style="fill:none;stroke:#A7BBC9;stroke-width:5;stroke-linecap:round;stroke-linejoin:round;stroke-miterlimit:10;" x1="192.199" y1="199.057" x2="227.223" y2="199.057"/>
			
				<line id="XMLID_65_" style="fill:none;stroke:#A7BBC9;stroke-width:5;stroke-linecap:round;stroke-linejoin:round;stroke-miterlimit:10;" x1="192.199" y1="212.274" x2="234.99" y2="212.274"/>
			
				<line id="XMLID_66_" style="fill:none;stroke:#A7BBC9;stroke-width:5;stroke-linecap:round;stroke-linejoin:round;stroke-miterlimit:10;" x1="192.199" y1="225.492" x2="227.223" y2="225.492"/>
			
				<line id="XMLID_69_" style="fill:none;stroke:#A7BBC9;stroke-width:5;stroke-linecap:round;stroke-linejoin:round;stroke-miterlimit:10;" x1="192.199" y1="238.709" x2="221.212" y2="238.709"/>
			
				<linearGradient id="XMLID_00000088130112373992362990000000074779065570426025_" gradientUnits="userSpaceOnUse" x1="249.6205" y1="151.0003" x2="249.6205" y2="184.4502">
				<stop  offset="0" style="stop-color:#262C82"/>
				<stop  offset="1" style="stop-color:#2F37B0"/>
			</linearGradient>
			<path id="XMLID_76_" style="fill:url(#XMLID_00000088130112373992362990000000074779065570426025_);" d="M270.803,189.57h-21.321
				c-1.629,0-3.09-1.004-3.674-2.525l-11.291-29.423h-2.183c-4.831,0-8.16,4.846-6.427,9.356l9.766,25.402
				c1.156,3.007,4.045,4.992,7.268,4.992h30.856L270.803,189.57z"/>
			<path id="XMLID_79_" style="fill:#FFFFFF;" d="M276.288,189.57l-1.007-2.62h-4.405c-1.349,0-2.279,1.354-1.795,2.613l3.002,7.81
				h10.918c2.157,0,3.644-2.163,2.871-4.177l-1.391-3.625H276.288z"/>
		</g>
		
			<text id="XMLID_40_" transform="matrix(0.9856 0 -0.1693 0.9856 86.5823 343.2853)" style="fill:#707D87; font-family:'Rubik-BoldItalic'; font-size:64.4373px;">DELIVERY</text>
		<g id="XMLID_59_">
			
				<text transform="matrix(0.9518 0 -0.3586 0.9335 187.0149 374.5948)" style="fill:#707D87; font-family:'Rubik-Medium'; font-size:35.7452px; letter-spacing:6.304;">LOGO</text>
		</g>
		<g id="XMLID_61_">
			<path id="SVGID_x5F_1_x5F_" style="fill:none;" d="M338.947,200.536c0,52.962-41.233,95.896-92.097,95.896
				s-92.097-42.934-92.097-95.896s41.233-95.896,92.097-95.896S338.947,147.574,338.947,200.536z"/>
			<text>			<textPath  xlink:href="#SVGID_x5F_1_x5F_" startOffset="70.402%">
<tspan  style="fill:#A7BBC9; font-family:'Rubik-Medium'; font-size:16.6727px; letter-spacing:10;">LOREM IPSUM DOLOR SIT AMET</tspan>			</textPath>
</text>
		</g>
		
			<line id="XMLID_71_" style="fill:none;stroke:#A7BBC9;stroke-width:3;stroke-linecap:round;stroke-linejoin:round;stroke-miterlimit:10;" x1="151.888" y1="186.95" x2="151.888" y2="280.455"/>
		
			<line id="XMLID_72_" style="fill:none;stroke:#A7BBC9;stroke-width:3;stroke-linecap:round;stroke-linejoin:round;stroke-miterlimit:10;" x1="342.138" y1="186.95" x2="342.138" y2="280.455"/>
	</g>
</g>
<g id="DESIGNED_BY_FREEPIK">
	<g id="XMLID_1_">
		<g id="XMLID_319_">
			<g id="XMLID_338_">
				<path id="XMLID_346_" style="fill:#A5B7C6;" d="M260.104,465.465c-0.432,0.443-0.803,0.931-1.108,1.453l-0.465-0.241
					c-0.067-0.298-0.349-0.503-0.659-0.466c-0.331,0.039-0.568,0.339-0.529,0.67c0.039,0.331,0.339,0.568,0.67,0.529
					c0.066-0.008,0.127-0.026,0.184-0.052l0.451,0.234c-0.251,0.554-0.433,1.139-0.539,1.744l0.747,0.132
					c0.23-1.306,0.85-2.507,1.792-3.473L260.104,465.465z"/>
				<path id="XMLID_345_" style="fill:#A5B7C6;" d="M265.592,463.163c-0.171,0-0.341,0.006-0.51,0.017l-0.074-0.626
					c0.188-0.149,0.296-0.389,0.266-0.645c-0.046-0.393-0.402-0.674-0.795-0.628c-0.393,0.046-0.674,0.402-0.628,0.795
					c0.03,0.254,0.189,0.461,0.404,0.564l0.074,0.624c-0.714,0.116-1.403,0.332-2.06,0.646l0.327,0.684
					c0.934-0.447,1.942-0.673,2.995-0.673c0.496,0,0.993,0.053,1.475,0.158l0.161-0.741
					C266.692,463.222,266.142,463.163,265.592,463.163z"/>
				<path id="XMLID_344_" style="fill:#A5B7C6;" d="M272.194,465.711c0.331-0.04,0.566-0.341,0.526-0.672
					c-0.04-0.331-0.341-0.566-0.672-0.526c-0.309,0.038-0.535,0.304-0.53,0.609l-0.416,0.363c-0.418-0.43-0.889-0.813-1.408-1.139
					l-0.404,0.641c1.134,0.715,2.021,1.726,2.563,2.925l0.69-0.313c-0.251-0.554-0.567-1.072-0.942-1.545l0.402-0.351
					C272.065,465.716,272.129,465.719,272.194,465.711z"/>
				<path id="XMLID_343_" style="fill:#A5B7C6;" d="M265.044,473.372c-0.386,0.023-0.775,0.035-1.157,0.035
					c-0.88,0-1.733-0.061-2.478-0.179c-0.39-0.062-0.846-0.155-1.27-0.292c1.046,1.861,3.069,3.125,5.388,3.125
					c2.855,0,5.262-1.916,5.95-4.504c-0.682,0.449-1.505,0.825-2.459,1.123C267.839,473.047,266.463,473.286,265.044,473.372z"/>
				<path id="XMLID_339_" style="fill:#A5B7C6;" d="M265.592,464.68c-3.352,0-6.08,2.666-6.08,5.943
					c0,0.426,0.046,0.849,0.137,1.261c0.673,0.483,2.706,0.89,5.348,0.731c2.879-0.173,5.297-0.957,6.672-2.159
					c-0.006-0.195-0.021-0.39-0.045-0.582C271.244,466.913,268.65,464.68,265.592,464.68z M263.432,471.194
					c-1.02,0-1.85-0.83-1.85-1.85c0-1.02,0.83-1.85,1.85-1.85c1.02,0,1.85,0.83,1.85,1.85
					C265.282,470.365,264.452,471.194,263.432,471.194z M268.17,470.286c-0.75,0-1.36-0.61-1.36-1.36s0.61-1.361,1.36-1.361
					c0.75,0,1.361,0.61,1.361,1.361S268.92,470.286,268.17,470.286z"/>
			</g>
			<path id="XMLID_336_" style="fill:#A5B7C6;" d="M281.595,466.547c-0.295-0.116-0.805-0.309-1.382-0.237
				c-0.551,0.069-0.844,0.341-0.844,1.007v0.866h2.228v1.717h-2.228v5.455h-1.932v-5.455h-1.34v-1.717h1.34v-0.888
				c0-1.68,0.896-2.783,2.568-2.783c0.643,0,1.157,0.122,1.59,0.308L281.595,466.547z"/>
			<path id="XMLID_334_" style="fill:#A5B7C6;" d="M286.298,469.879c-0.177-0.03-0.358-0.046-0.526-0.046
				c-0.896,0-1.51,0.548-1.51,1.614v3.908h-1.932v-7.172h1.873v0.785c0.451-0.673,1.14-0.977,2.021-0.977
				c0.414,0,0.848,0.128,1.094,0.337L286.298,469.879z"/>
			<path id="XMLID_331_" style="fill:#A5B7C6;" d="M293.965,471.757c0,0.222-0.015,0.489-0.037,0.651h-5.085
				c0.207,1.036,0.933,1.488,1.843,1.488c0.622,0,1.295-0.252,1.813-0.688l1.133,1.243c-0.814,0.748-1.85,1.088-3.057,1.088
				c-2.198,0-3.723-1.495-3.723-3.753c0-2.258,1.48-3.797,3.627-3.797C292.544,467.99,293.958,469.522,293.965,471.757z
				 M288.851,471.091h3.175c-0.177-0.918-0.733-1.436-1.562-1.436C289.554,469.655,289.021,470.203,288.851,471.091z"/>
			<path id="XMLID_328_" style="fill:#A5B7C6;" d="M301.618,471.757c0,0.222-0.015,0.489-0.037,0.651h-5.085
				c0.207,1.036,0.932,1.488,1.843,1.488c0.622,0,1.295-0.252,1.814-0.688l1.132,1.243c-0.814,0.748-1.85,1.088-3.057,1.088
				c-2.198,0-3.723-1.495-3.723-3.753c0-2.258,1.48-3.797,3.627-3.797C300.197,467.99,301.611,469.522,301.618,471.757z
				 M296.504,471.091h3.175c-0.178-0.918-0.733-1.436-1.562-1.436C297.207,469.655,296.674,470.203,296.504,471.091z"/>
			<path id="XMLID_325_" style="fill:#A5B7C6;" d="M309.964,471.764c0,2.154-1.495,3.775-3.471,3.775
				c-0.962,0-1.643-0.378-2.109-0.933v3.708h-1.924v-10.133h1.887v0.792c0.466-0.585,1.155-0.984,2.139-0.984
				C308.469,467.99,309.964,469.61,309.964,471.764z M304.287,471.764c0,1.132,0.747,1.976,1.843,1.976
				c1.14,0,1.85-0.881,1.85-1.976c0-1.095-0.71-1.976-1.85-1.976C305.035,469.788,304.287,470.632,304.287,471.764z"/>
			<path id="XMLID_322_" style="fill:#A5B7C6;" d="M313.068,465.836c0,0.696-0.54,1.229-1.236,1.229
				c-0.696,0-1.229-0.533-1.229-1.229c0-0.696,0.533-1.243,1.229-1.243C312.527,464.592,313.068,465.14,313.068,465.836z
				 M312.809,475.354h-1.932v-7.172h1.932V475.354z"/>
			<path id="XMLID_320_" style="fill:#A5B7C6;" d="M316.032,470.736l2.701-2.554h2.368l-3.479,3.375l3.501,3.797h-2.376
				l-2.716-2.901v2.901H314.1v-10.658h1.932V470.736z"/>
		</g>
		<g id="XMLID_2_">
			<path id="XMLID_3_" style="fill:#A5B7C6;" d="M184.412,475.289v-1.055c-0.527,0.718-1.391,1.23-2.388,1.23
				c-1.846,0-3.149-1.406-3.149-3.706c0-2.256,1.289-3.721,3.149-3.721c0.952,0,1.816,0.469,2.388,1.245v-3.765h1.099v9.77H184.412z
				 M184.412,473.37v-3.208c-0.395-0.615-1.245-1.143-2.124-1.143c-1.421,0-2.27,1.172-2.27,2.739c0,1.567,0.85,2.724,2.27,2.724
				C183.168,474.483,184.017,473.986,184.412,473.37z"/>
			<path id="XMLID_6_" style="fill:#A5B7C6;" d="M186.932,471.744c0-2.051,1.465-3.706,3.486-3.706c2.139,0,3.398,1.67,3.398,3.794
				v0.279h-5.727c0.088,1.333,1.025,2.446,2.549,2.446c0.805,0,1.626-0.322,2.182-0.894l0.527,0.718
				c-0.703,0.703-1.655,1.084-2.812,1.084C188.44,475.465,186.932,473.956,186.932,471.744z M190.403,468.947
				c-1.509,0-2.256,1.274-2.314,2.358h4.643C192.718,470.25,192.015,468.947,190.403,468.947z"/>
			<path id="XMLID_9_" style="fill:#A5B7C6;" d="M194.607,474.351l0.571-0.791c0.469,0.542,1.362,1.011,2.329,1.011
				c1.084,0,1.67-0.513,1.67-1.216c0-1.714-4.38-0.659-4.38-3.281c0-1.098,0.952-2.036,2.636-2.036c1.201,0,2.051,0.454,2.622,1.026
				l-0.513,0.762c-0.424-0.513-1.201-0.894-2.109-0.894c-0.967,0-1.567,0.483-1.567,1.113c0,1.552,4.38,0.527,4.38,3.281
				c0,1.187-0.952,2.138-2.783,2.138C196.306,475.465,195.325,475.113,194.607,474.351z"/>
			<path id="XMLID_11_" style="fill:#A5B7C6;" d="M201.477,466.471c0-0.41,0.337-0.747,0.732-0.747c0.41,0,0.747,0.337,0.747,0.747
				c0,0.41-0.337,0.732-0.747,0.732C201.814,467.203,201.477,466.881,201.477,466.471z M201.667,475.289v-7.075h1.099v7.075H201.667
				z"/>
			<path id="XMLID_14_" style="fill:#A5B7C6;" d="M204.582,477.105l0.556-0.82c0.586,0.703,1.289,0.967,2.3,0.967
				c1.172,0,2.27-0.571,2.27-2.124v-1.011c-0.513,0.718-1.377,1.26-2.373,1.26c-1.845,0-3.149-1.377-3.149-3.662
				c0-2.27,1.289-3.677,3.149-3.677c0.952,0,1.802,0.469,2.373,1.245v-1.069h1.098v6.87c0,2.344-1.641,3.076-3.369,3.076
				C206.237,478.16,205.417,477.926,204.582,477.105z M209.709,473.253v-3.091c-0.381-0.615-1.23-1.143-2.109-1.143
				c-1.421,0-2.27,1.128-2.27,2.695c0,1.553,0.849,2.695,2.27,2.695C208.478,474.41,209.328,473.868,209.709,473.253z"/>
			<path id="XMLID_17_" style="fill:#A5B7C6;" d="M217.413,475.289v-4.629c0-1.245-0.63-1.641-1.582-1.641
				c-0.865,0-1.685,0.527-2.095,1.099v5.17h-1.099v-7.075h1.099v1.025c0.498-0.586,1.465-1.201,2.519-1.201
				c1.48,0,2.256,0.747,2.256,2.285v4.966H217.413z"/>
			<path id="XMLID_19_" style="fill:#A5B7C6;" d="M219.932,471.744c0-2.051,1.465-3.706,3.486-3.706c2.139,0,3.398,1.67,3.398,3.794
				v0.279h-5.727c0.088,1.333,1.025,2.446,2.549,2.446c0.806,0,1.626-0.322,2.183-0.894l0.527,0.718
				c-0.703,0.703-1.655,1.084-2.812,1.084C221.441,475.465,219.932,473.956,219.932,471.744z M223.404,468.947
				c-1.509,0-2.256,1.274-2.314,2.358h4.643C225.718,470.25,225.015,468.947,223.404,468.947z"/>
			<path id="XMLID_22_" style="fill:#A5B7C6;" d="M233.35,475.289v-1.055c-0.527,0.718-1.392,1.23-2.388,1.23
				c-1.846,0-3.149-1.406-3.149-3.706c0-2.256,1.289-3.721,3.149-3.721c0.952,0,1.817,0.469,2.388,1.245v-3.765h1.098v9.77H233.35z
				 M233.35,473.37v-3.208c-0.396-0.615-1.245-1.143-2.124-1.143c-1.421,0-2.27,1.172-2.27,2.739c0,1.567,0.849,2.724,2.27,2.724
				C232.105,474.483,232.954,473.986,233.35,473.37z"/>
			<path id="XMLID_25_" style="fill:#A5B7C6;" d="M239.692,475.289v-9.77h1.098v3.765c0.572-0.776,1.421-1.245,2.388-1.245
				c1.845,0,3.149,1.465,3.149,3.721c0,2.299-1.304,3.706-3.149,3.706c-0.996,0-1.86-0.513-2.388-1.23v1.055H239.692z
				 M242.9,474.483c1.436,0,2.285-1.157,2.285-2.724c0-1.568-0.85-2.739-2.285-2.739c-0.864,0-1.728,0.527-2.109,1.143v3.208
				C241.171,473.986,242.036,474.483,242.9,474.483z"/>
			<path id="XMLID_28_" style="fill:#A5B7C6;" d="M247.528,477.061c0.161,0.073,0.425,0.117,0.601,0.117
				c0.483,0,0.805-0.161,1.055-0.747l0.469-1.069l-2.959-7.148h1.187l2.358,5.8l2.344-5.8h1.201l-3.545,8.51
				c-0.425,1.025-1.143,1.421-2.08,1.435c-0.234,0-0.601-0.044-0.805-0.103L247.528,477.061z"/>
		</g>
	</g>
</g>
</svg>
