<?xml version="1.0" standalone="no"?>
<!DOCTYPE svg PUBLIC "-//W3C//DTD SVG 20010904//EN"
 "http://www.w3.org/TR/2001/REC-SVG-20010904/DTD/svg10.dtd">
<svg version="1.0" xmlns="http://www.w3.org/2000/svg"
 width="64.000000pt" height="64.000000pt" viewBox="0 0 64.000000 64.000000"
 preserveAspectRatio="xMidYMid meet">

<g transform="translate(0.000000,64.000000) scale(0.100000,-0.100000)"
fill="#000000" stroke="none">
<path d="M335 566 c-47 -28 -77 -75 -85 -131 l-5 -40 -112 -3 -113 -3 0 -124
c0 -137 9 -175 40 -175 13 0 20 -7 20 -18 0 -25 20 -42 50 -42 31 0 50 17 50
44 0 16 3 17 12 8 15 -15 130 -16 145 -1 8 8 13 8 17 0 4 -6 22 -11 39 -11 21
0 36 -7 45 -20 15 -24 64 -27 82 -5 7 8 10 28 8 45 -3 16 -1 30 3 30 4 0 9
-12 11 -27 3 -25 7 -28 43 -28 l40 0 3 58 c3 50 -1 66 -27 113 l-31 54 20 32
c28 46 27 128 -2 180 -48 85 -168 115 -253 64z m203 -49 c35 -36 37 -40 37
-106 0 -93 -16 -111 -97 -111 l-58 0 0 45 0 45 -71 0 -72 0 6 46 c3 32 13 55
33 76 40 41 60 48 127 45 52 -3 62 -7 95 -40z m-226 -144 c-50 -2 -134 -2
-185 0 -50 1 -9 3 93 3 102 0 143 -2 92 -3z m54 -109 c-2 -36 -7 -69 -13 -75
-6 -6 -68 -8 -149 -7 -118 3 -138 5 -135 18 2 8 3 38 3 65 0 39 2 45 9 28 4
-13 12 -23 17 -23 15 0 8 44 -8 52 -8 4 51 7 132 7 l147 1 -3 -66z m212 -23
c29 -51 32 -164 5 -159 -9 2 -20 14 -23 28 -5 22 -12 25 -58 28 l-52 3 0 48 0
49 58 -24 c56 -23 82 -29 82 -19 0 3 -10 21 -22 40 -20 30 -29 35 -73 38 l-50
3 56 2 c55 2 56 1 77 -37z m-60 10 c11 -7 11 -9 -2 -14 -9 -4 -23 -4 -32 0
-13 5 -13 7 -2 14 16 11 20 11 36 0z m-206 -118 c-50 -2 -134 -2 -185 0 -50 1
-9 3 93 3 102 0 143 -2 92 -3z m121 -28 c-7 -21 -13 -19 -13 6 0 11 4 18 10
14 5 -3 7 -12 3 -20z m-348 5 c-3 -5 -13 -10 -21 -10 -8 0 -14 5 -14 10 0 6 9
10 21 10 11 0 17 -4 14 -10z m315 -10 c0 -21 -24 -28 -35 -10 -3 6 -46 10 -95
10 -49 0 -92 5 -95 10 -4 6 35 10 109 10 109 0 116 -1 116 -20z m-250 -20 c0
-13 -7 -20 -20 -20 -13 0 -20 7 -20 20 0 13 7 20 20 20 13 0 20 -7 20 -20z
m350 0 c0 -13 -7 -20 -20 -20 -13 0 -20 7 -20 20 0 13 7 20 20 20 13 0 20 -7
20 -20z"/>
<path d="M420 540 c0 -5 5 -10 10 -10 6 0 10 5 10 10 0 6 -4 10 -10 10 -5 0
-10 -4 -10 -10z"/>
<path d="M422 448 l3 -63 45 -1 c39 -1 40 -1 8 3 l-38 4 0 60 c0 34 -4 59 -10
59 -7 0 -10 -24 -8 -62z"/>
<path d="M130 300 c0 -11 5 -20 10 -20 6 0 10 9 10 20 0 11 -4 20 -10 20 -5 0
-10 -9 -10 -20z"/>
<path d="M160 300 c0 -24 15 -27 24 -4 9 22 8 24 -9 24 -8 0 -15 -9 -15 -20z"/>
<path d="M200 300 c0 -11 7 -20 15 -20 8 0 15 9 15 20 0 11 -7 20 -15 20 -8 0
-15 -9 -15 -20z"/>
<path d="M242 298 c4 -31 24 -33 24 -3 0 14 -6 25 -14 25 -8 0 -12 -8 -10 -22z"/>
<path d="M293 300 c1 -11 5 -20 9 -20 4 0 8 9 8 20 0 11 -4 20 -9 20 -6 0 -9
-9 -8 -20z"/>
<path d="M333 300 c1 -11 5 -20 9 -20 4 0 8 9 8 20 0 11 -4 20 -9 20 -6 0 -9
-9 -8 -20z"/>
<path d="M80 230 c0 -5 4 -10 9 -10 6 0 13 5 16 10 3 6 -1 10 -9 10 -9 0 -16
-4 -16 -10z"/>
<path d="M121 224 c-1 -12 5 -21 14 -21 9 0 15 9 15 21 0 16 -2 18 -9 7 -7
-11 -9 -11 -14 0 -3 9 -6 6 -6 -7z"/>
<path d="M162 220 c0 -14 2 -19 5 -12 2 6 2 18 0 25 -3 6 -5 1 -5 -13z"/>
<path d="M180 219 c0 -18 2 -19 15 -5 8 8 15 17 15 20 0 3 -7 6 -15 6 -9 0
-15 -9 -15 -21z"/>
<path d="M220 219 c0 -18 2 -19 15 -5 8 8 15 17 15 20 0 3 -7 6 -15 6 -9 0
-15 -9 -15 -21z"/>
<path d="M262 220 c0 -14 2 -19 5 -12 2 6 2 18 0 25 -3 6 -5 1 -5 -13z"/>
<path d="M280 220 c0 -9 7 -17 15 -17 8 0 15 8 15 17 0 9 -7 17 -15 17 -8 0
-15 -8 -15 -17z"/>
<path d="M320 220 c0 -11 7 -20 15 -20 8 0 15 5 15 11 0 5 -4 7 -10 4 -5 -3
-10 -2 -10 4 0 5 6 12 13 14 7 3 5 6 -5 6 -12 1 -18 -6 -18 -19z"/>
<path d="M90 210 c-13 -8 -12 -10 3 -10 9 0 17 5 17 10 0 12 -1 12 -20 0z"/>
<path d="M118 423 c18 -2 45 -2 60 0 15 2 0 4 -33 4 -33 0 -45 -2 -27 -4z"/>
<path d="M143 403 c15 -2 39 -2 55 0 15 2 2 4 -28 4 -30 0 -43 -2 -27 -4z"/>
<path d="M333 53 c15 -2 37 -2 50 0 12 2 0 4 -28 4 -27 0 -38 -2 -22 -4z"/>
<path d="M283 33 c15 -2 39 -2 55 0 15 2 2 4 -28 4 -30 0 -43 -2 -27 -4z"/>
</g>
</svg>
