<svg xmlns="http://www.w3.org/2000/svg" width="64" height="64" fill="none" viewBox="0 -0.5 25 25"><g stroke="#2C4951" stroke-linecap="round" stroke-width="1.5"><path stroke-linejoin="round" d="M13.5 19a7 7 0 1 0-6.326-4L5.5 19l4.392-1a6.97 6.97 0 0 0 3.608 1" clip-rule="evenodd"/><path stroke-linejoin="round" d="M11.541 11.066A1.033 1.033 0 1 1 11.559 9a1.033 1.033 0 0 1-.018 2.066M14.417 13.918a1.041 1.041 0 1 0 2.082.016 1.041 1.041 0 0 0-2.082-.016" clip-rule="evenodd"/><path d="M10.5 10.033c-.014 3.467 3.3 5.297 4.959 4.918"/></g></svg>